<svg xmlns="http://www.w3.org/2000/svg" x="0px" y="0px" width="100" height="100" viewBox="0,0,256,256">
<g fill="none" fill-rule="nonzero" stroke="none" stroke-width="1" stroke-linecap="butt" stroke-linejoin="miter" stroke-miterlimit="10" stroke-dasharray="" stroke-dashoffset="0" font-family="none" font-weight="none" font-size="none" text-anchor="none" style="mix-blend-mode: normal"><g transform="scale(8,8)"><path d="M26.236,20c-1.604,4.091 -5.583,7 -10.236,7c-4.653,0 -8.631,-2.909 -10.236,-7h-4.206c1.756,6.333 7.557,11 14.442,11c6.885,0 12.686,-4.667 14.442,-11z" fill="#d82d33"></path><path d="M5.191,18c-0.12,-0.65 -0.191,-1.316 -0.191,-2c0,-6.065 4.935,-11 11,-11c6.065,0 11,4.935 11,11c0,0.684 -0.071,1.35 -0.191,2h4.042c0.087,-0.656 0.149,-1.32 0.149,-2c0,-8.271 -6.729,-15 -15,-15c-8.271,0 -15,6.729 -15,15c0,0.68 0.062,1.344 0.149,2z" fill="#d82d33"></path><path d="M23,14h-5v-5h-4v5h-5v4h5v5h4v-5h5z" fill="#35d82d"></path></g></g>
</svg>